<?xml version="1.0" encoding="UTF-8"?> <svg xmlns="http://www.w3.org/2000/svg" width="280" height="367" viewBox="0 0 280 367" fill="none"><path d="M98.1311 366.754L68.8718 330.759L22.5852 340.93L88.0239 148.84L163.57 174.664L98.1311 366.754Z" fill="#383838"></path><path d="M181.346 366.754L210.605 330.759L256.891 340.93L191.448 148.84L115.907 174.664L181.346 366.754Z" fill="#383838"></path><g style="mix-blend-mode:soft-light" opacity="0.35"><g style="mix-blend-mode:soft-light" opacity="0.08"><path d="M238.311 209.138C232.088 204.166 223.022 205.192 218.063 211.426C214.931 215.359 214.187 220.421 215.624 224.872C211.181 223.433 206.123 224.178 202.201 227.314C198.274 230.451 196.425 235.22 196.837 239.881C192.825 237.49 187.728 237.09 183.208 239.27C178.688 241.45 175.823 245.689 175.187 250.325C171.806 247.098 166.929 245.573 162.034 246.688C157.14 247.809 153.407 251.302 151.759 255.68C149.179 251.781 144.762 249.204 139.743 249.204C134.723 249.204 130.306 251.781 127.726 255.68C126.079 251.302 122.345 247.809 117.451 246.688C112.556 245.568 107.679 247.093 104.299 250.325C103.662 245.689 100.802 241.45 96.2774 239.27C91.7528 237.09 86.6605 237.49 82.6477 239.881C83.0563 235.22 81.2069 230.451 77.2844 227.314C73.3577 224.178 68.3041 223.433 63.8612 224.872C65.2977 220.421 64.5537 215.355 61.4226 211.426C56.4593 205.192 47.393 204.171 41.1738 209.138C34.9504 214.11 33.9311 223.191 38.8943 229.421C42.748 234.259 49.066 235.939 54.6142 234.134C52.8121 239.692 54.4895 246.025 59.3195 249.881C64.1494 253.741 70.6868 253.969 75.6931 250.971C75.1684 256.791 78.2134 262.59 83.7789 265.274C89.3443 267.958 95.7699 266.726 99.9848 262.689C100.768 268.479 105.021 273.455 111.047 274.83C117.068 276.208 123.059 273.576 126.272 268.699C128.319 274.17 133.575 278.069 139.751 278.069C145.927 278.069 151.183 274.166 153.23 268.699C156.443 273.576 162.434 276.208 168.456 274.83C174.477 273.451 178.735 268.479 179.518 262.689C183.732 266.726 190.158 267.958 195.723 265.274C201.289 262.59 204.334 256.791 203.809 250.971C208.816 253.969 215.353 253.737 220.183 249.881C225.013 246.021 226.69 239.692 224.888 234.134C230.436 235.939 236.759 234.259 240.608 229.421C245.571 223.187 244.548 214.105 238.329 209.138H238.311Z" fill="black"></path></g><g style="mix-blend-mode:soft-light" opacity="0.15"><path d="M238.311 208.397C232.088 203.425 223.022 204.451 218.063 210.685C214.931 214.618 214.187 219.68 215.624 224.13C211.181 222.691 206.123 223.437 202.201 226.573C198.274 229.71 196.425 234.479 196.837 239.14C192.825 236.749 187.728 236.349 183.208 238.528C178.683 240.708 175.823 244.948 175.187 249.583C171.806 246.356 166.929 244.831 162.034 245.947C157.14 247.067 153.407 250.561 151.759 254.938C149.179 251.039 144.762 248.463 139.743 248.463C134.723 248.463 130.306 251.039 127.726 254.938C126.079 250.561 122.345 247.067 117.451 245.947C112.556 244.827 107.679 246.352 104.299 249.583C103.662 244.948 100.802 240.708 96.2774 238.528C91.7528 236.349 86.6605 236.749 82.6477 239.14C83.0563 234.479 81.2069 229.71 77.2844 226.573C73.3577 223.437 68.3041 222.691 63.8612 224.13C65.2977 219.68 64.5537 214.614 61.4226 210.685C56.4593 204.451 47.393 203.43 41.1738 208.397C34.9504 213.369 33.9311 222.45 38.8943 228.68C42.748 233.518 49.066 235.198 54.6142 233.393C52.8121 238.951 54.4895 245.284 59.3195 249.14C64.1494 253 70.6868 253.228 75.6931 250.23C75.1684 256.05 78.2134 261.849 83.7789 264.533C89.3443 267.217 95.7699 265.985 99.9848 261.948C100.768 267.738 105.021 272.714 111.047 274.088C117.068 275.467 123.059 272.835 126.272 267.958C128.319 273.429 133.575 277.328 139.751 277.328C145.927 277.328 151.183 273.425 153.23 267.958C156.443 272.835 162.434 275.467 168.456 274.088C174.477 272.71 178.735 267.738 179.518 261.948C183.732 265.985 190.158 267.217 195.723 264.533C201.289 261.849 204.334 256.05 203.809 250.23C208.816 253.228 215.353 252.995 220.183 249.14C225.013 245.279 226.69 238.951 224.888 233.393C230.436 235.198 236.759 233.518 240.608 228.68C245.571 222.446 244.548 213.364 238.329 208.397H238.311Z" fill="black"></path></g><g style="mix-blend-mode:soft-light" opacity="0.23"><path d="M238.311 207.656C232.088 202.684 223.022 203.71 218.063 209.944C214.931 213.877 214.187 218.939 215.624 223.39C211.181 221.951 206.123 222.696 202.201 225.832C198.274 228.969 196.425 233.738 196.837 238.4C192.825 236.008 187.728 235.608 183.208 237.788C178.683 239.968 175.823 244.207 175.187 248.843C171.806 245.616 166.929 244.091 162.034 245.206C157.14 246.327 153.407 249.821 151.759 254.198C149.179 250.299 144.762 247.722 139.743 247.722C134.723 247.722 130.306 250.299 127.726 254.198C126.079 249.821 122.345 246.327 117.451 245.206C112.556 244.086 107.679 245.611 104.299 248.843C103.662 244.207 100.802 239.968 96.2774 237.788C91.7528 235.608 86.6605 236.008 82.6477 238.4C83.0563 233.738 81.2069 228.969 77.2844 225.832C73.3577 222.696 68.3041 221.951 63.8612 223.39C65.2977 218.939 64.5537 213.873 61.4226 209.944C56.4593 203.71 47.393 202.689 41.1738 207.656C34.9504 212.628 33.9311 221.71 38.8943 227.939C42.748 232.777 49.066 234.457 54.6142 232.652C52.8121 238.21 54.4895 244.543 59.3195 248.399C64.1494 252.259 70.6868 252.487 75.6931 249.489C75.1684 255.309 78.2134 261.108 83.7789 263.792C89.3443 266.476 95.7699 265.244 99.9848 261.207C100.768 266.997 105.021 271.973 111.047 273.348C117.068 274.726 123.059 272.094 126.272 267.217C128.319 272.689 133.575 276.587 139.751 276.587C145.927 276.587 151.183 272.684 153.23 267.217C156.443 272.094 162.434 274.726 168.456 273.348C174.477 271.969 178.735 266.997 179.518 261.207C183.732 265.244 190.158 266.476 195.723 263.792C201.289 261.108 204.334 255.309 203.809 249.489C208.816 252.487 215.353 252.255 220.183 248.399C225.013 244.539 226.69 238.21 224.888 232.652C230.436 234.457 236.759 232.777 240.608 227.939C245.571 221.705 244.548 212.624 238.329 207.656H238.311Z" fill="black"></path></g><g style="mix-blend-mode:soft-light" opacity="0.31"><path d="M238.311 206.92C232.088 201.948 223.022 202.973 218.063 209.203C214.931 213.136 214.187 218.198 215.624 222.649C211.181 221.21 206.123 221.955 202.201 225.092C198.274 228.228 196.425 232.997 196.837 237.659C192.825 235.268 187.728 234.867 183.208 237.047C178.688 239.227 175.823 243.466 175.187 248.102C171.806 244.875 166.929 243.35 162.034 244.466C157.14 245.586 153.407 249.08 151.759 253.457C149.179 249.558 144.762 246.982 139.743 246.982C134.723 246.982 130.306 249.558 127.726 253.457C126.079 249.08 122.345 245.586 117.451 244.466C112.556 243.345 107.679 244.871 104.299 248.102C103.662 243.466 100.802 239.227 96.2774 237.047C91.7528 234.867 86.6605 235.268 82.6477 237.659C83.0563 232.997 81.2069 228.228 77.2844 225.092C73.3577 221.955 68.3041 221.21 63.8612 222.649C65.2977 218.198 64.5537 213.132 61.4226 209.203C56.4593 202.969 47.393 201.948 41.1738 206.92C34.9504 211.891 33.9311 220.973 38.8943 227.203C42.748 232.041 49.066 233.721 54.6142 231.916C52.8121 237.473 54.4895 243.806 59.3195 247.662C64.1494 251.522 70.6868 251.751 75.6931 248.752C75.1684 254.573 78.2134 260.371 83.7789 263.055C89.3443 265.739 95.7699 264.507 99.9848 260.471C100.768 266.261 105.021 271.237 111.047 272.611C117.068 273.99 123.059 271.357 126.272 266.481C128.319 271.952 133.575 275.851 139.751 275.851C145.927 275.851 151.183 271.948 153.23 266.481C156.443 271.357 162.434 273.99 168.456 272.611C174.477 271.232 178.735 266.261 179.518 260.471C183.732 264.507 190.158 265.739 195.723 263.055C201.289 260.371 204.334 254.573 203.809 248.752C208.816 251.751 215.353 251.518 220.183 247.662C225.013 243.802 226.69 237.473 224.888 231.916C230.436 233.721 236.759 232.041 240.608 227.203C245.571 220.969 244.548 211.887 238.329 206.92H238.311Z" fill="black"></path></g><g style="mix-blend-mode:soft-light" opacity="0.38"><path d="M238.311 206.178C232.088 201.207 223.022 202.232 218.063 208.462C214.931 212.395 214.187 217.457 215.624 221.908C211.181 220.469 206.123 221.214 202.201 224.35C198.274 227.487 196.425 232.256 196.837 236.917C192.825 234.526 187.728 234.126 183.208 236.306C178.683 238.486 175.823 242.725 175.187 247.36C171.806 244.134 166.929 242.609 162.034 243.724C157.14 244.844 153.407 248.338 151.759 252.716C149.179 248.817 144.762 246.24 139.743 246.24C134.723 246.24 130.306 248.817 127.726 252.716C126.079 248.338 122.345 244.844 117.451 243.724C112.556 242.604 107.679 244.129 104.299 247.36C103.662 242.725 100.802 238.486 96.2774 236.306C91.7528 234.126 86.6605 234.526 82.6477 236.917C83.0563 232.256 81.2069 227.487 77.2844 224.35C73.3577 221.214 68.3041 220.469 63.8612 221.908C65.2977 217.457 64.5537 212.391 61.4226 208.462C56.4593 202.228 47.393 201.207 41.1738 206.178C34.9504 211.15 33.9311 220.232 38.8943 226.461C42.748 231.299 49.066 232.98 54.6142 231.175C52.8121 236.732 54.4895 243.065 59.3195 246.921C64.1494 250.781 70.6868 251.01 75.6931 248.011C75.1684 253.831 78.2134 259.63 83.7789 262.314C89.3443 264.998 95.7699 263.766 99.9848 259.729C100.768 265.52 105.021 270.496 111.047 271.87C117.068 273.249 123.059 270.616 126.272 265.739C128.319 271.211 133.575 275.11 139.751 275.11C145.927 275.11 151.183 271.206 153.23 265.739C156.443 270.616 162.434 273.249 168.456 271.87C174.477 270.491 178.735 265.52 179.518 259.729C183.732 263.766 190.158 264.998 195.723 262.314C201.289 259.63 204.334 253.831 203.809 248.011C208.816 251.01 215.353 250.777 220.183 246.921C225.013 243.061 226.69 236.732 224.888 231.175C230.436 232.98 236.759 231.299 240.608 226.461C245.571 220.227 244.548 211.146 238.329 206.178H238.311Z" fill="black"></path></g><g style="mix-blend-mode:soft-light" opacity="0.46"><path d="M238.311 205.437C232.088 200.466 223.022 201.491 218.063 207.725C214.931 211.658 214.187 216.721 215.624 221.171C211.181 219.732 206.123 220.477 202.201 223.614C198.274 226.75 196.425 231.519 196.837 236.181C192.825 233.79 187.728 233.389 183.208 235.569C178.683 237.749 175.823 241.988 175.187 246.624C171.806 243.397 166.929 241.872 162.034 242.988C157.14 244.108 153.407 247.602 151.759 251.979C149.179 248.08 144.762 245.504 139.743 245.504C134.723 245.504 130.306 248.08 127.726 251.979C126.079 247.602 122.345 244.108 117.451 242.988C112.556 241.868 107.679 243.393 104.299 246.624C103.662 241.988 100.802 237.749 96.2774 235.569C91.7528 233.389 86.6605 233.79 82.6477 236.181C83.0563 231.519 81.2069 226.75 77.2844 223.614C73.3577 220.477 68.3041 219.732 63.8612 221.171C65.2977 216.721 64.5537 211.654 61.4226 207.725C56.4593 201.491 47.393 200.47 41.1738 205.437C34.9504 210.409 33.9311 219.491 38.8943 225.72C42.748 230.559 49.066 232.239 54.6142 230.434C52.8121 235.991 54.4895 242.324 59.3195 246.18C64.1494 250.04 70.6868 250.269 75.6931 247.27C75.1684 253.09 78.2134 258.889 83.7789 261.573C89.3443 264.257 95.7699 263.025 99.9848 258.988C100.768 264.779 105.021 269.755 111.047 271.129C117.068 272.508 123.059 269.875 126.272 264.998C128.319 270.47 133.575 274.369 139.751 274.369C145.927 274.369 151.183 270.465 153.23 264.998C156.443 269.875 162.434 272.508 168.456 271.129C174.477 269.75 178.735 264.779 179.518 258.988C183.732 263.025 190.158 264.257 195.723 261.573C201.289 258.889 204.334 253.09 203.809 247.27C208.816 250.269 215.353 250.036 220.183 246.18C225.013 242.32 226.69 235.991 224.888 230.434C230.436 232.239 236.759 230.559 240.608 225.72C245.571 219.486 244.548 210.405 238.329 205.437H238.311Z" fill="black"></path></g><g style="mix-blend-mode:soft-light" opacity="0.54"><path d="M238.311 204.696C232.088 199.725 223.022 200.75 218.063 206.984C214.931 210.917 214.187 215.979 215.624 220.43C211.181 218.991 206.123 219.736 202.201 222.872C198.274 226.009 196.425 230.778 196.837 235.44C192.825 233.048 187.728 232.648 183.208 234.828C178.683 237.008 175.823 241.247 175.187 245.883C171.806 242.656 166.929 241.131 162.034 242.247C157.14 243.367 153.407 246.861 151.759 251.238C149.179 247.339 144.762 244.762 139.743 244.762C134.723 244.762 130.306 247.339 127.726 251.238C126.079 246.861 122.345 243.367 117.451 242.247C112.556 241.126 107.679 242.651 104.299 245.883C103.662 241.247 100.802 237.008 96.2774 234.828C91.7528 232.648 86.6605 233.048 82.6477 235.44C83.0563 230.778 81.2069 226.009 77.2844 222.872C73.3577 219.736 68.3041 218.991 63.8612 220.43C65.2977 215.979 64.5537 210.913 61.4226 206.984C56.4593 200.75 47.393 199.729 41.1738 204.696C34.9504 209.668 33.9311 218.75 38.8943 224.979C42.748 229.817 49.066 231.498 54.6142 229.692C52.8121 235.25 54.4895 241.583 59.3195 245.439C64.1494 249.299 70.6868 249.527 75.6931 246.529C75.1684 252.349 78.2134 258.148 83.7789 260.832C89.3443 263.516 95.7699 262.284 99.9848 258.247C100.768 264.037 105.021 269.013 111.047 270.388C117.068 271.766 123.059 269.134 126.272 264.257C128.319 269.729 133.575 273.627 139.751 273.627C145.927 273.627 151.183 269.724 153.23 264.257C156.443 269.134 162.434 271.766 168.456 270.388C174.477 269.009 178.735 264.037 179.518 258.247C183.732 262.284 190.158 263.516 195.723 260.832C201.289 258.148 204.334 252.349 203.809 246.529C208.816 249.527 215.353 249.295 220.183 245.439C225.013 241.579 226.69 235.25 224.888 229.692C230.436 231.498 236.759 229.817 240.608 224.979C245.571 218.745 244.548 209.664 238.329 204.696H238.311Z" fill="black"></path></g><g style="mix-blend-mode:soft-light" opacity="0.62"><path d="M238.311 203.955C232.088 198.984 223.022 200.009 218.063 206.243C214.931 210.177 214.187 215.239 215.624 219.689C211.181 218.25 206.123 218.995 202.201 222.132C198.274 225.268 196.425 230.037 196.837 234.699C192.825 232.308 187.728 231.907 183.208 234.087C178.683 236.267 175.823 240.506 175.187 245.142C171.806 241.915 166.929 240.39 162.034 241.506C157.14 242.626 153.407 246.12 151.759 250.497C149.179 246.598 144.762 244.022 139.743 244.022C134.723 244.022 130.306 246.598 127.726 250.497C126.079 246.12 122.345 242.626 117.451 241.506C112.556 240.386 107.679 241.911 104.299 245.142C103.662 240.506 100.802 236.267 96.2774 234.087C91.7528 231.907 86.6605 232.308 82.6477 234.699C83.0563 230.037 81.2069 225.268 77.2844 222.132C73.3577 218.995 68.3041 218.25 63.8612 219.689C65.2977 215.239 64.5537 210.172 61.4226 206.243C56.4593 200.009 47.393 198.988 41.1738 203.955C34.9504 208.927 33.9311 218.009 38.8943 224.238C42.748 229.077 49.066 230.757 54.6142 228.952C52.8121 234.509 54.4895 240.842 59.3195 244.698C64.1494 248.558 70.6868 248.787 75.6931 245.788C75.1684 251.609 78.2134 257.407 83.7789 260.091C89.3443 262.775 95.7699 261.543 99.9848 257.506C100.768 263.297 105.021 268.273 111.047 269.647C117.068 271.026 123.059 268.393 126.272 263.516C128.319 268.988 133.575 272.887 139.751 272.887C145.927 272.887 151.183 268.984 153.23 263.516C156.443 268.393 162.434 271.026 168.456 269.647C174.477 268.268 178.735 263.297 179.518 257.506C183.732 261.543 190.158 262.775 195.723 260.091C201.289 257.407 204.334 251.609 203.809 245.788C208.816 248.787 215.353 248.554 220.183 244.698C225.013 240.838 226.69 234.509 224.888 228.952C230.436 230.757 236.759 229.077 240.608 224.238C245.571 218.005 244.548 208.923 238.329 203.955H238.311Z" fill="black"></path></g><g style="mix-blend-mode:soft-light" opacity="0.69"><path d="M238.311 203.214C232.088 198.243 223.022 199.268 218.063 205.502C214.931 209.435 214.187 214.497 215.624 218.948C211.181 217.509 206.123 218.254 202.201 221.391C198.274 224.527 196.425 229.296 196.837 233.958C192.825 231.567 187.728 231.166 183.208 233.346C178.683 235.526 175.823 239.765 175.187 244.401C171.806 241.174 166.929 239.649 162.034 240.765C157.14 241.885 153.407 245.379 151.759 249.756C149.179 245.857 144.762 243.281 139.743 243.281C134.723 243.281 130.306 245.857 127.726 249.756C126.079 245.379 122.345 241.885 117.451 240.765C112.556 239.644 107.679 241.17 104.299 244.401C103.662 239.765 100.802 235.526 96.2774 233.346C91.7528 231.166 86.6605 231.567 82.6477 233.958C83.0563 229.296 81.2069 224.527 77.2844 221.391C73.3577 218.254 68.3041 217.509 63.8612 218.948C65.2977 214.497 64.5537 209.431 61.4226 205.502C56.4593 199.268 47.393 198.247 41.1738 203.214C34.9504 208.186 33.9311 217.268 38.8943 223.497C42.748 228.335 49.066 230.016 54.6142 228.21C52.8121 233.768 54.4895 240.101 59.3195 243.957C64.1494 247.817 70.6868 248.045 75.6931 245.047C75.1684 250.867 78.2134 256.666 83.7789 259.35C89.3443 262.034 95.7699 260.802 99.9848 256.765C100.768 262.555 105.021 267.531 111.047 268.906C117.068 270.284 123.059 267.652 126.272 262.775C128.319 268.247 133.575 272.146 139.751 272.146C145.927 272.146 151.183 268.242 153.23 262.775C156.443 267.652 162.434 270.284 168.456 268.906C174.477 267.527 178.735 262.555 179.518 256.765C183.732 260.802 190.158 262.034 195.723 259.35C201.289 256.666 204.334 250.867 203.809 245.047C208.816 248.045 215.353 247.813 220.183 243.957C225.013 240.097 226.69 233.768 224.888 228.21C230.436 230.016 236.759 228.335 240.608 223.497C245.571 217.263 244.548 208.182 238.329 203.214H238.311Z" fill="black"></path></g><g style="mix-blend-mode:soft-light" opacity="0.77"><path d="M238.311 202.477C232.088 197.506 223.022 198.531 218.063 204.765C214.931 208.698 214.187 213.761 215.624 218.211C211.181 216.772 206.123 217.517 202.201 220.654C198.274 223.79 196.425 228.559 196.837 233.221C192.825 230.83 187.728 230.429 183.208 232.609C178.683 234.789 175.823 239.028 175.187 243.664C171.806 240.437 166.929 238.912 162.034 240.028C157.14 241.148 153.407 244.642 151.759 249.019C149.179 245.12 144.762 242.544 139.743 242.544C134.723 242.544 130.306 245.12 127.726 249.019C126.079 244.642 122.345 241.148 117.451 240.028C112.556 238.908 107.679 240.433 104.299 243.664C103.662 239.028 100.802 234.789 96.2774 232.609C91.7528 230.429 86.6605 230.83 82.6477 233.221C83.0563 228.559 81.2069 223.79 77.2844 220.654C73.3577 217.517 68.3041 216.772 63.8612 218.211C65.2977 213.761 64.5537 208.694 61.4226 204.765C56.4593 198.531 47.393 197.51 41.1738 202.477C34.9504 207.449 33.9311 216.531 38.8943 222.76C42.748 227.599 49.066 229.279 54.6142 227.474C52.8121 233.031 54.4895 239.364 59.3195 243.22C64.1494 247.08 70.6868 247.309 75.6931 244.31C75.1684 250.131 78.2134 255.929 83.7789 258.613C89.3443 261.297 95.7699 260.065 99.9848 256.028C100.768 261.819 105.021 266.795 111.047 268.169C117.068 269.548 123.059 266.915 126.272 262.038C128.319 267.51 133.575 271.409 139.751 271.409C145.927 271.409 151.183 267.506 153.23 262.038C156.443 266.915 162.434 269.548 168.456 268.169C174.477 266.79 178.735 261.819 179.518 256.028C183.732 260.065 190.158 261.297 195.723 258.613C201.289 255.929 204.334 250.131 203.809 244.31C208.816 247.309 215.353 247.076 220.183 243.22C225.013 239.36 226.69 233.031 224.888 227.474C230.436 229.279 236.759 227.599 240.608 222.76C245.571 216.527 244.548 207.445 238.329 202.477H238.311Z" fill="black"></path></g><g style="mix-blend-mode:soft-light" opacity="0.85"><path d="M238.311 201.737C232.088 196.765 223.022 197.79 218.063 204.024C214.931 207.958 214.187 213.02 215.624 217.47C211.181 216.031 206.123 216.777 202.201 219.913C198.274 223.049 196.425 227.819 196.837 232.48C192.825 230.089 187.728 229.688 183.208 231.868C178.683 234.048 175.823 238.288 175.187 242.923C171.806 239.696 166.929 238.171 162.034 239.287C157.14 240.407 153.407 243.901 151.759 248.278C149.179 244.379 144.762 241.803 139.743 241.803C134.723 241.803 130.306 244.379 127.726 248.278C126.079 243.901 122.345 240.407 117.451 239.287C112.556 238.167 107.679 239.692 104.299 242.923C103.662 238.288 100.802 234.048 96.2774 231.868C91.7528 229.688 86.6605 230.089 82.6477 232.48C83.0563 227.819 81.2069 223.049 77.2844 219.913C73.3577 216.777 68.3041 216.031 63.8612 217.47C65.2977 213.02 64.5537 207.953 61.4226 204.024C56.4593 197.79 47.393 196.769 41.1738 201.737C34.9504 206.708 33.9311 215.79 38.8943 222.02C42.748 226.858 49.066 228.538 54.6142 226.733C52.8121 232.291 54.4895 238.624 59.3195 242.479C64.1494 246.34 70.6868 246.568 75.6931 243.569C75.1684 249.39 78.2134 255.189 83.7789 257.873C89.3443 260.557 95.7699 259.325 99.9848 255.288C100.768 261.078 105.021 266.054 111.047 267.428C117.068 268.807 123.059 266.175 126.272 261.298C128.319 266.769 133.575 270.668 139.751 270.668C145.927 270.668 151.183 266.765 153.23 261.298C156.443 266.175 162.434 268.807 168.456 267.428C174.477 266.05 178.735 261.078 179.518 255.288C183.732 259.325 190.158 260.557 195.723 257.873C201.289 255.189 204.334 249.39 203.809 243.569C208.816 246.568 215.353 246.335 220.183 242.479C225.013 238.619 226.69 232.291 224.888 226.733C230.436 228.538 236.759 226.858 240.608 222.02C245.571 215.786 244.548 206.704 238.329 201.737H238.311Z" fill="black"></path></g><g style="mix-blend-mode:soft-light" opacity="0.92"><path d="M238.311 200.995C232.088 196.024 223.022 197.049 218.063 203.283C214.931 207.217 214.187 212.279 215.624 216.729C211.181 215.29 206.123 216.035 202.201 219.172C198.274 222.308 196.425 227.077 196.837 231.739C192.825 229.348 187.728 228.947 183.208 231.127C178.683 233.307 175.823 237.546 175.187 242.182C171.806 238.955 166.929 237.43 162.034 238.546C157.14 239.666 153.407 243.16 151.759 247.537C149.179 243.638 144.762 241.062 139.743 241.062C134.723 241.062 130.306 243.638 127.726 247.537C126.079 243.16 122.345 239.666 117.451 238.546C112.556 237.426 107.679 238.951 104.299 242.182C103.662 237.546 100.802 233.307 96.2774 231.127C91.7528 228.947 86.6605 229.348 82.6477 231.739C83.0563 227.077 81.2069 222.308 77.2844 219.172C73.3577 216.035 68.3041 215.29 63.8612 216.729C65.2977 212.279 64.5537 207.212 61.4226 203.283C56.4593 197.049 47.393 196.028 41.1738 200.995C34.9504 205.967 33.9311 215.049 38.8943 221.279C42.748 226.117 49.066 227.797 54.6142 225.992C52.8121 231.549 54.4895 237.882 59.3195 241.738C64.1494 245.598 70.6868 245.827 75.6931 242.828C75.1684 248.649 78.2134 254.447 83.7789 257.131C89.3443 259.815 95.7699 258.583 99.9848 254.547C100.768 260.337 105.021 265.313 111.047 266.687C117.068 268.066 123.059 265.433 126.272 260.556C128.319 266.028 133.575 269.927 139.751 269.927C145.927 269.927 151.183 266.024 153.23 260.556C156.443 265.433 162.434 268.066 168.456 266.687C174.477 265.308 178.735 260.337 179.518 254.547C183.732 258.583 190.158 259.815 195.723 257.131C201.289 254.447 204.334 248.649 203.809 242.828C208.816 245.827 215.353 245.594 220.183 241.738C225.013 237.878 226.69 231.549 224.888 225.992C230.436 227.797 236.759 226.117 240.608 221.279C245.571 215.045 244.548 205.963 238.329 200.995H238.311Z" fill="black"></path></g><g style="mix-blend-mode:soft-light"><path d="M238.311 200.255C232.088 195.283 223.022 196.308 218.063 202.538C214.931 206.471 214.187 211.533 215.624 215.984C211.181 214.545 206.123 215.29 202.201 218.427C198.274 221.563 196.425 226.332 196.837 230.994C192.825 228.603 187.728 228.202 183.208 230.382C178.683 232.562 175.823 236.801 175.187 241.437C171.806 238.21 166.929 236.685 162.034 237.801C157.14 238.921 153.407 242.415 151.759 246.792C149.179 242.893 144.762 240.317 139.743 240.317C134.723 240.317 130.306 242.893 127.726 246.792C126.079 242.415 122.345 238.921 117.451 237.801C112.556 236.68 107.679 238.206 104.299 241.437C103.662 236.801 100.802 232.562 96.2774 230.382C91.7528 228.202 86.6605 228.603 82.6477 230.994C83.0563 226.332 81.2069 221.563 77.2844 218.427C73.3577 215.29 68.3041 214.545 63.8612 215.984C65.2977 211.533 64.5537 206.467 61.4226 202.538C56.4593 196.304 47.393 195.283 41.1738 200.255C34.9504 205.226 33.9311 214.308 38.8943 220.538C42.748 225.376 49.066 227.056 54.6142 225.251C52.8121 230.808 54.4895 237.141 59.3195 240.997C64.1494 244.857 70.6868 245.086 75.6931 242.087C75.1684 247.908 78.2134 253.706 83.7789 256.39C89.3443 259.074 95.7699 257.842 99.9848 253.806C100.768 259.596 105.021 264.572 111.047 265.946C117.068 267.325 123.059 264.692 126.272 259.815C128.319 265.287 133.575 269.186 139.751 269.186C145.927 269.186 151.183 265.283 153.23 259.815C156.443 264.692 162.434 267.325 168.456 265.946C174.477 264.567 178.735 259.596 179.518 253.806C183.732 257.842 190.158 259.074 195.723 256.39C201.289 253.706 204.334 247.908 203.809 242.087C208.816 245.086 215.353 244.853 220.183 240.997C225.013 237.137 226.69 230.808 224.888 225.251C230.436 227.056 236.759 225.376 240.608 220.538C245.571 214.304 244.548 205.222 238.329 200.255H238.311Z" fill="black"></path></g></g><path d="M37.6169 104.562C45.5498 103.938 51.4758 96.9904 50.8528 89.044C50.2299 81.0976 43.2939 75.1617 35.361 75.7857C27.428 76.4097 21.5021 83.3573 22.125 91.3037C22.748 99.2501 29.6839 105.186 37.6169 104.562Z" fill="#383838"></path><path d="M39.978 122.486C44.4139 115.869 42.6545 106.902 36.0482 102.459C29.4419 98.0156 20.4905 99.778 16.0546 106.395C11.6187 113.013 13.3782 121.98 19.9844 126.423C26.5907 130.866 35.5421 129.104 39.978 122.486Z" fill="#383838"></path><path d="M25.1442 154.406C33.1016 154.406 39.5523 147.945 39.5523 139.974C39.5523 132.003 33.1016 125.542 25.1442 125.542C17.1868 125.542 10.7361 132.003 10.7361 139.974C10.7361 147.945 17.1868 154.406 25.1442 154.406Z" fill="#383838"></path><path d="M41.1309 171.494C44.432 164.241 41.2387 155.681 33.9983 152.374C26.758 149.068 18.2125 152.266 14.9113 159.519C11.6102 166.771 14.8035 175.332 22.0439 178.638C29.2842 181.945 37.8298 178.746 41.1309 171.494Z" fill="#383838"></path><path d="M38.2612 204.099C46.1592 203.128 51.7757 195.927 50.806 188.016C49.8362 180.104 42.6474 174.478 34.7493 175.45C26.8513 176.421 21.2348 183.622 22.2045 191.533C23.1743 199.445 30.3631 205.071 38.2612 204.099Z" fill="#383838"></path><path d="M146.264 38.0608C153.359 34.452 156.19 25.7651 152.587 18.658C148.985 11.5509 140.312 8.71489 133.217 12.3237C126.122 15.9324 123.291 24.6194 126.894 31.7265C130.496 38.8336 139.169 41.6696 146.264 38.0608Z" fill="#383838"></path><path d="M128.407 30.6904C129.853 22.8522 124.682 15.324 116.857 13.8755C109.032 12.427 101.517 17.6069 100.071 25.445C98.6246 33.2831 103.796 40.8114 111.621 42.2599C119.446 43.7084 126.961 38.5285 128.407 30.6904Z" fill="#383838"></path><path d="M93.6037 50.5281C101.311 48.5458 105.955 40.6802 103.976 32.9598C101.997 25.2394 94.1448 20.5877 86.4374 22.57C78.73 24.5522 74.0862 32.4178 76.0651 40.1382C78.044 47.8587 85.8963 52.5104 93.6037 50.5281Z" fill="#383838"></path><path d="M82.5976 51.8937C83.5163 43.9761 77.8535 36.8117 69.9494 35.8914C62.0452 34.9711 54.8928 40.6435 53.9741 48.561C53.0553 56.4785 58.7181 63.643 66.6223 64.5633C74.5265 65.4836 81.6789 59.8112 82.5976 51.8937Z" fill="#383838"></path><path d="M57.1492 81.0171C64.1042 77.1443 66.608 68.357 62.7417 61.3903C58.8754 54.4236 50.103 51.9155 43.148 55.7884C36.193 59.6612 33.6892 68.4484 37.5555 75.4152C41.4218 82.3819 50.1942 84.89 57.1492 81.0171Z" fill="#383838"></path><path d="M59.0938 222.854C65.3274 217.899 66.3712 208.821 61.4252 202.577C56.4792 196.333 47.4164 195.287 41.1829 200.242C34.9493 205.196 33.9055 214.274 38.8515 220.518C43.7975 226.762 52.8603 227.808 59.0938 222.854Z" fill="#383838"></path><path d="M69.9396 244.055C77.8438 243.135 83.5066 235.97 82.5878 228.053C81.6691 220.135 74.5167 214.463 66.6126 215.383C58.7084 216.303 53.0456 223.468 53.9643 231.385C54.883 239.303 62.0354 244.975 69.9396 244.055Z" fill="#383838"></path><path d="M99.0137 254.663C105.232 249.689 106.247 240.608 101.281 234.379C96.3159 228.151 87.2499 227.134 81.0319 232.108C74.8139 237.082 73.7986 246.163 78.7641 252.391C83.7296 258.62 92.7957 259.637 99.0137 254.663Z" fill="#383838"></path><path d="M126.825 258.905C130.696 251.941 128.198 243.152 121.246 239.274C114.294 235.397 105.52 237.899 101.649 244.863C97.7775 251.827 100.275 260.616 107.227 264.493C114.18 268.371 122.954 265.869 126.825 258.905Z" fill="#383838"></path><path d="M153.992 256.848C155.146 248.961 149.7 241.631 141.826 240.475C133.953 239.318 126.635 244.775 125.481 252.661C124.327 260.548 129.773 267.878 137.647 269.034C145.52 270.19 152.838 264.734 153.992 256.848Z" fill="#383838"></path><path d="M165.778 266.308C173.73 266.003 179.93 259.3 179.625 251.335C179.321 243.37 172.629 237.16 164.677 237.464C156.726 237.769 150.526 244.473 150.83 252.438C151.134 260.403 157.827 266.613 165.778 266.308Z" fill="#383838"></path><path d="M191.147 257.736C199.048 256.795 204.693 249.615 203.753 241.7C202.814 233.785 195.646 228.131 187.745 229.073C179.843 230.014 174.199 237.193 175.138 245.108C176.078 253.023 183.245 258.677 191.147 257.736Z" fill="#383838"></path><path d="M225.507 231.285C226.373 223.362 220.663 216.235 212.753 215.368C204.843 214.5 197.728 220.22 196.862 228.143C195.995 236.067 201.706 243.193 209.616 244.061C217.526 244.929 224.64 239.209 225.507 231.285Z" fill="#383838"></path><path d="M241.606 219.098C245.772 212.307 243.653 203.419 236.873 199.246C230.093 195.073 221.22 197.195 217.054 203.986C212.888 210.777 215.007 219.666 221.787 223.839C228.566 228.012 237.44 225.889 241.606 219.098Z" fill="#383838"></path><path d="M257.359 190.781C257.911 182.829 251.924 175.934 243.985 175.381C236.047 174.828 229.164 180.825 228.612 188.777C228.06 196.729 234.047 203.623 241.985 204.177C249.924 204.73 256.806 198.732 257.359 190.781Z" fill="#383838"></path><path d="M257.498 178.6C264.722 175.258 267.873 166.682 264.537 159.446C261.2 152.21 252.639 149.053 245.415 152.395C238.191 155.737 235.04 164.312 238.376 171.549C241.713 178.785 250.274 181.942 257.498 178.6Z" fill="#383838"></path><path d="M254.328 154.406C262.285 154.406 268.736 147.945 268.736 139.974C268.736 132.003 262.285 125.542 254.328 125.542C246.371 125.542 239.92 132.003 239.92 139.974C239.92 147.945 246.371 154.406 254.328 154.406Z" fill="#383838"></path><path d="M265.817 115.388C266.349 107.435 260.343 100.556 252.404 100.024C244.464 99.4915 237.597 105.507 237.065 113.46C236.534 121.413 242.539 128.292 250.479 128.824C258.418 129.357 265.286 123.341 265.817 115.388Z" fill="#383838"></path><path d="M257.283 91.9072C258.244 83.9946 252.618 76.8005 244.719 75.8387C236.82 74.877 229.638 80.5118 228.678 88.4244C227.718 96.337 233.343 103.531 241.242 104.493C249.141 105.455 256.323 99.8198 257.283 91.9072Z" fill="#383838"></path><path d="M233.316 82.2766C240.963 80.0702 245.376 72.0724 243.173 64.413C240.97 56.7537 232.986 52.3332 225.34 54.5396C217.693 56.746 213.28 64.7438 215.483 72.4032C217.686 80.0626 225.67 84.4831 233.316 82.2766Z" fill="#383838"></path><path d="M212.846 64.5779C220.75 63.6576 226.413 56.4931 225.494 48.5756C224.575 40.658 217.423 34.9856 209.519 35.9059C201.614 36.8262 195.952 43.9907 196.87 51.9082C197.789 59.8258 204.941 65.4982 212.846 64.5779Z" fill="#383838"></path><path d="M203.498 39.8251C205.3 32.0614 200.478 24.3042 192.727 22.499C184.976 20.6937 177.232 25.524 175.43 33.2877C173.628 41.0515 178.45 48.8087 186.201 50.6139C193.951 52.4192 201.695 47.5889 203.498 39.8251Z" fill="#383838"></path><path d="M177.654 35.3904C181.691 28.5211 179.403 19.6748 172.546 15.6317C165.688 11.5886 156.857 13.8797 152.82 20.749C148.784 27.6183 151.071 36.4646 157.929 40.5077C164.787 44.5508 173.618 42.2597 177.654 35.3904Z" fill="#383838"></path><g style="mix-blend-mode:soft-light" opacity="0.25"><g style="mix-blend-mode:soft-light" opacity="0.08"><path d="M139.738 260.522C206.203 260.522 260.083 206.551 260.083 139.974C260.083 73.3974 206.203 19.4263 139.738 19.4263C73.2739 19.4263 19.3939 73.3974 19.3939 139.974C19.3939 206.551 73.2739 260.522 139.738 260.522Z" fill="black"></path></g><g style="mix-blend-mode:soft-light" opacity="0.15"><path d="M139.738 260.1C205.97 260.1 259.661 206.317 259.661 139.974C259.661 73.6303 205.97 19.8481 139.738 19.8481C73.5067 19.8481 19.8154 73.6303 19.8154 139.974C19.8154 206.317 73.5067 260.1 139.738 260.1Z" fill="black"></path></g><g style="mix-blend-mode:soft-light" opacity="0.23"><path d="M139.738 259.678C205.737 259.678 259.24 206.084 259.24 139.974C259.24 73.8636 205.737 20.2705 139.738 20.2705C73.7395 20.2705 20.2369 73.8636 20.2369 139.974C20.2369 206.084 73.7395 259.678 139.738 259.678Z" fill="black"></path></g><g style="mix-blend-mode:soft-light" opacity="0.31"><path d="M139.738 259.255C205.504 259.255 258.818 205.851 258.818 139.974C258.818 74.0969 205.504 20.6929 139.738 20.6929C73.9722 20.6929 20.6583 74.0969 20.6583 139.974C20.6583 205.851 73.9722 259.255 139.738 259.255Z" fill="black"></path></g><g style="mix-blend-mode:soft-light" opacity="0.38"><path d="M139.738 258.829C205.269 258.829 258.392 205.616 258.392 139.974C258.392 74.3322 205.269 21.1191 139.738 21.1191C74.2075 21.1191 21.0842 74.3322 21.0842 139.974C21.0842 205.616 74.2075 258.829 139.738 258.829Z" fill="black"></path></g><g style="mix-blend-mode:soft-light" opacity="0.46"><path d="M139.738 258.407C205.036 258.407 257.971 205.383 257.971 139.974C257.971 74.5656 205.036 21.5415 139.738 21.5415C74.4402 21.5415 21.5056 74.5656 21.5056 139.974C21.5056 205.383 74.4402 258.407 139.738 258.407Z" fill="black"></path></g><g style="mix-blend-mode:soft-light" opacity="0.54"><path d="M139.738 257.985C204.804 257.985 257.549 205.15 257.549 139.974C257.549 74.7989 204.804 21.9639 139.738 21.9639C74.673 21.9639 21.9271 74.7989 21.9271 139.974C21.9271 205.15 74.673 257.985 139.738 257.985Z" fill="black"></path></g><g style="mix-blend-mode:soft-light" opacity="0.62"><path d="M139.738 257.562C204.571 257.562 257.128 204.916 257.128 139.974C257.128 75.0318 204.571 22.3857 139.738 22.3857C74.9058 22.3857 22.3486 75.0318 22.3486 139.974C22.3486 204.916 74.9058 257.562 139.738 257.562Z" fill="black"></path></g><g style="mix-blend-mode:soft-light" opacity="0.69"><path d="M139.738 257.14C204.338 257.14 256.706 204.683 256.706 139.974C256.706 75.2651 204.338 22.8081 139.738 22.8081C75.1386 22.8081 22.7701 75.2651 22.7701 139.974C22.7701 204.683 75.1386 257.14 139.738 257.14Z" fill="black"></path></g><g style="mix-blend-mode:soft-light" opacity="0.77"><path d="M139.738 256.713C204.103 256.713 256.281 204.447 256.281 139.974C256.281 75.5004 204.103 23.2344 139.738 23.2344C75.3737 23.2344 23.1959 75.5004 23.1959 139.974C23.1959 204.447 75.3737 256.713 139.738 256.713Z" fill="black"></path></g><g style="mix-blend-mode:soft-light" opacity="0.85"><path d="M139.738 256.291C203.87 256.291 255.859 204.214 255.859 139.974C255.859 75.7337 203.87 23.6567 139.738 23.6567C75.6065 23.6567 23.6174 75.7337 23.6174 139.974C23.6174 204.214 75.6065 256.291 139.738 256.291Z" fill="black"></path></g><g style="mix-blend-mode:soft-light" opacity="0.92"><path d="M139.738 255.869C203.637 255.869 255.438 203.981 255.438 139.974C255.438 75.9671 203.637 24.0791 139.738 24.0791C75.8393 24.0791 24.0389 75.9671 24.0389 139.974C24.0389 203.981 75.8393 255.869 139.738 255.869Z" fill="black"></path></g><g style="mix-blend-mode:soft-light"><path d="M139.738 255.447C203.405 255.447 255.016 203.748 255.016 139.974C255.016 76.1999 203.405 24.501 139.738 24.501C76.0721 24.501 24.4604 76.1999 24.4604 139.974C24.4604 203.748 76.0721 255.447 139.738 255.447Z" fill="black"></path></g></g><path d="M139.738 255.447C203.404 255.447 255.016 203.748 255.016 139.974C255.016 76.2004 203.404 24.5015 139.738 24.5015C76.072 24.5015 24.4603 76.2004 24.4603 139.974C24.4603 203.748 76.072 255.447 139.738 255.447Z" fill="#0F0F0F"></path><path d="M209.607 209.961C248.194 171.308 248.194 108.64 209.607 69.987C171.019 31.3342 108.456 31.3342 69.8689 69.987C31.2814 108.64 31.2814 171.308 69.8689 209.961C108.456 248.614 171.019 248.614 209.607 209.961Z" fill="white"></path><path d="M205.24 205.587C241.415 169.35 241.415 110.598 205.24 74.3616C169.064 38.1248 110.412 38.1248 74.2361 74.3616C38.0605 110.598 38.0605 169.35 74.2361 205.587C110.412 241.823 169.064 241.823 205.24 205.587Z" fill="#FFD500"></path><path d="M72.4501 149.806L116.96 198.251C118.814 200.268 122.018 200.169 123.743 198.04L201.715 101.773C203.323 99.7873 202.953 96.8577 200.902 95.3326L181.763 81.1328C179.801 79.6766 177.04 80.0601 175.548 81.9944L124.328 148.276C122.676 150.417 119.519 150.616 117.61 148.703L95.5332 126.589C93.7698 124.822 90.9011 124.835 89.1592 126.623L72.5447 143.623C70.876 145.329 70.8329 148.048 72.4501 149.81V149.806Z" fill="white"></path></svg> 