<?xml version="1.0" encoding="UTF-8"?> <svg xmlns="http://www.w3.org/2000/svg" width="160" height="158" viewBox="0 0 160 158" fill="none"><path d="M0 5.55209C0 2.03387 1.83981 0 5.22928 0C8.61874 0 10.4585 2.0353 10.4585 5.55209V7.97313H7.10174V5.35802C7.10174 3.97024 6.52051 3.25977 5.32632 3.25977C4.13212 3.25977 3.55086 3.96976 3.55086 5.35802V17.9063C3.55086 19.2941 4.13212 19.9724 5.32632 19.9724C6.52051 19.9724 7.10174 19.2945 7.10174 17.9063V14.6782H10.4585V17.7122C10.4585 21.2304 8.61874 23.2643 5.22928 23.2643C1.83981 23.2643 0 21.229 0 17.7122V5.55209Z" fill="url(#paint0_linear_34_3)"></path><path d="M19.0427 6.45612H22.4644V22.9103H19.4962L19.4318 21.0056C19.1996 21.6842 18.7526 22.2687 18.1585 22.6706C17.5645 23.0725 16.8556 23.27 16.1394 23.2331C13.7183 23.2331 12.4597 21.619 12.4597 18.3914V6.45612H15.8814V18.036C15.8814 19.4886 16.3656 20.1986 17.3014 20.1986C18.4634 20.1986 19.0442 19.3272 19.0442 17.5518L19.0427 6.45612Z" fill="url(#paint1_linear_34_3)"></path><path d="M32.3128 6.32834V9.65296C32.0273 9.58604 31.7347 9.55426 31.4414 9.5583C29.5046 9.5583 28.5362 10.8415 28.5362 13.4234V22.9136H25.1145V6.45709H28.0841L28.1485 9.23312C28.6004 7.16722 29.6764 6.13428 31.3766 6.13428C31.6992 6.12788 32.0192 6.19451 32.3128 6.32834Z" fill="url(#paint2_linear_34_3)"></path><path d="M33.2131 18.1974V17.681H36.5055V18.2963C36.5055 19.6216 37.0219 20.2975 38.0225 20.2975C39.0231 20.2975 39.5073 19.7163 39.5073 18.5221C39.5062 18.1328 39.3693 17.7562 39.1201 17.4571C38.5953 16.7783 37.9063 16.2443 37.118 15.9056C36.6511 15.6636 36.1984 15.3949 35.7624 15.1009C35.4718 14.8751 35.0846 14.5845 34.6326 14.1647C34.1958 13.6953 33.8618 13.14 33.652 12.5342C33.4421 11.9284 33.361 11.2854 33.4138 10.6465C33.4138 7.84628 35.0278 6.10255 38.0296 6.10255C40.8695 6.10255 42.6454 7.94236 42.6454 10.9039V11.2589H39.4174V10.8069C39.4174 9.62078 38.9654 9.03148 38.0618 9.03148C37.1582 9.03148 36.7365 9.55593 36.7365 10.5807C36.7365 11.7749 37.5411 12.4848 39.2541 13.3889C40.1525 13.8311 40.9708 14.4203 41.6751 15.1322C42.1041 15.5606 42.4357 16.0765 42.6474 16.6446C42.8591 17.2128 42.9459 17.8199 42.902 18.4246C42.902 21.3942 41.288 23.2018 38.1891 23.2018C35.0903 23.2018 33.2131 21.3933 33.2131 18.1974Z" fill="url(#paint3_linear_34_3)"></path><path d="M44.5776 11.4511C44.5776 8.00532 46.3852 6.10255 49.6133 6.10255C52.8413 6.10255 54.6485 8.00674 54.6485 11.4511V17.9068C54.6485 21.362 52.8408 23.2648 49.6133 23.2648C46.3857 23.2648 44.5776 21.3606 44.5776 17.9068V11.4511ZM51.2268 11.1283C51.2268 9.803 50.6782 9.13514 49.6128 9.13514C48.5473 9.13514 47.9987 9.80489 47.9987 11.1283V18.1652C47.9987 19.4905 48.5473 20.1664 49.6128 20.1664C50.6782 20.1664 51.2268 19.4886 51.2268 18.1652V11.1283Z" fill="url(#paint4_linear_34_3)"></path><path d="M6.97205 79.5699L0 33.4923H7.30291L12.1445 69.7016L16.9459 33.4923H23.5952L16.5748 79.5699H6.97205Z" fill="url(#paint5_linear_34_3)"></path><path d="M25.4506 79.5699V33.4923H32.7133V79.5699H25.4506Z" fill="url(#paint6_linear_34_3)"></path><path d="M36.4033 79.5699V33.4923H47.1278C54.568 33.4923 57.8605 36.914 57.8605 44.0877V46.92C57.8605 51.7296 56.2814 54.7589 53.1234 56.0079V56.1693C56.3515 57.1632 57.9248 60.4542 57.9248 65.9197V73.9894C57.8384 75.8875 58.1114 77.7849 58.7295 79.5817H51.3565C50.8441 77.7447 50.6235 75.8386 50.7029 73.9331V65.489C50.7029 61.2764 49.5167 59.8403 46.1589 59.8403H43.6593V79.5708L36.4033 79.5699ZM43.666 53.2389H46.2967C49.1939 53.2389 50.6461 51.8592 50.6461 48.3973V44.8384C50.6461 41.6832 49.3951 40.1014 46.9584 40.1014H43.666V53.2389Z" fill="url(#paint7_linear_34_3)"></path><path d="M77.0158 79.5699L75.7648 70.5564H67.4126L66.1535 79.5699H59.4399L66.9445 33.4923H76.7494L84.2539 79.5699H77.0158ZM68.3247 64.3024H74.8452L71.5527 41.0622L68.3247 64.3024Z" fill="url(#paint8_linear_34_3)"></path><path d="M86.0407 79.5699V33.4923H94.9898L102.301 61.0743V33.4923H108.756V79.5699H101.445L92.4963 45.9355V79.5699H86.0407Z" fill="url(#paint9_linear_34_3)"></path><path d="M112.499 79.5699V33.4923H123.555C130.737 33.4923 134.352 37.3092 134.352 44.8786V68.1836C134.352 75.753 130.737 79.5699 123.555 79.5699H112.499ZM119.762 72.9931H123.45C125.871 72.9931 127.137 71.4761 127.137 68.5145V44.5558C127.137 41.5942 125.886 40.0772 123.45 40.0772H119.762V72.9931Z" fill="url(#paint10_linear_34_3)"></path><path d="M137.056 44.419C137.056 37.0513 140.937 32.8392 148.047 32.8392C155.156 32.8392 159.038 37.0517 159.038 44.419V68.6271C159.038 76.0029 155.156 80.215 148.047 80.215C140.937 80.215 137.056 76.0039 137.056 68.6271V44.419ZM151.799 43.9589C151.799 40.9353 150.548 39.4207 148.046 39.415C145.544 39.4094 144.294 40.924 144.294 43.9589V69.0796C144.294 72.1136 145.545 73.6235 148.046 73.6235C150.548 73.6235 151.799 72.1146 151.799 69.0796V43.9589Z" fill="url(#paint11_linear_34_3)"></path><path d="M3.14757 157.038V89.8178H13.7107V117.19H25.0085V89.8178H35.5716V157.038H25.0407V126.792H13.7429V157.038H3.14757Z" fill="url(#paint12_linear_34_3)"></path><path d="M41.075 157.038V89.8178H69.8838V99.4206H51.6381V117.176H66.1635V126.779H51.6381V147.437H69.8838V157.04L41.075 157.038Z" fill="url(#paint13_linear_34_3)"></path><path d="M73.1521 157.038V89.8178H88.7992C99.653 89.8178 104.454 94.8128 104.454 105.279V109.427C104.454 116.421 102.149 120.837 97.5387 122.677V122.871C102.244 124.307 104.551 129.109 104.551 137.081V148.896C104.551 152.543 104.938 155.23 105.705 157.054H94.9482C94.2784 155.133 93.9878 152.349 93.9878 148.799V136.492C93.9878 130.343 92.2607 128.229 87.3613 128.229H83.7139V157.038H73.1521ZM83.7153 118.626H87.5885C91.8091 118.626 93.9229 116.609 93.9229 111.526V106.337C93.9229 101.729 92.0992 99.4211 88.5488 99.4211H83.7153V118.626Z" fill="url(#paint14_linear_34_3)"></path><path d="M145.457 89.8178V115.512L146.805 118.231L155.245 119.458L149.137 125.413L150.573 133.822L145.457 131.134V157.046H156.02V89.8178H145.457Z" fill="url(#paint15_linear_34_3)"></path><path d="M135.473 133.824L136.918 125.415L130.808 119.46L139.233 118.233L140.734 115.183V105.764C140.734 95.0073 135.085 88.8191 124.699 88.8191C114.314 88.8191 108.665 94.968 108.665 105.764V141.102C108.665 151.859 114.314 158 124.699 158C135.085 158 140.734 151.859 140.734 141.102V131.048L135.473 133.824ZM130.188 141.772C130.188 146.194 128.364 148.403 124.716 148.399C121.069 148.394 119.245 146.185 119.245 141.772V105.09C119.245 100.672 121.069 98.4631 124.716 98.4631C128.364 98.4631 130.188 100.672 130.188 105.09V141.772Z" fill="url(#paint16_linear_34_3)"></path><defs><linearGradient id="paint0_linear_34_3" x1="104.647" y1="-67.308" x2="63.6626" y2="173.257" gradientUnits="userSpaceOnUse"><stop stop-color="white"></stop><stop offset="1" stop-color="#D4D4D4"></stop></linearGradient><linearGradient id="paint1_linear_34_3" x1="108.305" y1="-145.044" x2="65.757" y2="188.406" gradientUnits="userSpaceOnUse"><stop stop-color="white"></stop><stop offset="1" stop-color="#D4D4D4"></stop></linearGradient><linearGradient id="paint2_linear_34_3" x1="107.032" y1="-134.3" x2="47.5168" y2="199.216" gradientUnits="userSpaceOnUse"><stop stop-color="white"></stop><stop offset="1" stop-color="#D4D4D4"></stop></linearGradient><linearGradient id="paint3_linear_34_3" x1="108.305" y1="-124.504" x2="64.343" y2="202.79" gradientUnits="userSpaceOnUse"><stop stop-color="white"></stop><stop offset="1" stop-color="#D4D4D4"></stop></linearGradient><linearGradient id="paint4_linear_34_3" x1="105.283" y1="-115.972" x2="62.7349" y2="210.054" gradientUnits="userSpaceOnUse"><stop stop-color="white"></stop><stop offset="1" stop-color="#D4D4D4"></stop></linearGradient><linearGradient id="paint5_linear_34_3" x1="79.3598" y1="-0.474" x2="91.4468" y2="244.434" gradientUnits="userSpaceOnUse"><stop stop-color="white"></stop><stop offset="1" stop-color="#D4D4D4"></stop></linearGradient><linearGradient id="paint6_linear_34_3" x1="65.2054" y1="-1.896" x2="104.461" y2="243.085" gradientUnits="userSpaceOnUse"><stop stop-color="white"></stop><stop offset="1" stop-color="#D4D4D4"></stop></linearGradient><linearGradient id="paint7_linear_34_3" x1="71.0898" y1="-3.476" x2="83.8048" y2="241.433" gradientUnits="userSpaceOnUse"><stop stop-color="white"></stop><stop offset="1" stop-color="#D4D4D4"></stop></linearGradient><linearGradient id="paint8_linear_34_3" x1="71.726" y1="-5.53" x2="83.185" y2="239.377" gradientUnits="userSpaceOnUse"><stop stop-color="white"></stop><stop offset="1" stop-color="#D4D4D4"></stop></linearGradient><linearGradient id="paint9_linear_34_3" x1="74.9067" y1="-7.9" x2="87.4647" y2="237.008" gradientUnits="userSpaceOnUse"><stop stop-color="white"></stop><stop offset="1" stop-color="#D4D4D4"></stop></linearGradient><linearGradient id="paint10_linear_34_3" x1="73.6344" y1="-10.112" x2="86.8203" y2="234.797" gradientUnits="userSpaceOnUse"><stop stop-color="white"></stop><stop offset="1" stop-color="#D4D4D4"></stop></linearGradient><linearGradient id="paint11_linear_34_3" x1="74.5886" y1="-9.796" x2="87.6176" y2="228.477" gradientUnits="userSpaceOnUse"><stop stop-color="white"></stop><stop offset="1" stop-color="#D4D4D4"></stop></linearGradient><linearGradient id="paint12_linear_34_3" x1="63.9331" y1="18.486" x2="102.107" y2="167.917" gradientUnits="userSpaceOnUse"><stop stop-color="#FCF315"></stop><stop offset="1" stop-color="#FCC000"></stop></linearGradient><linearGradient id="paint13_linear_34_3" x1="58.8439" y1="8.058" x2="101.739" y2="157.676" gradientUnits="userSpaceOnUse"><stop stop-color="#FCF315"></stop><stop offset="1" stop-color="#FCC000"></stop></linearGradient><linearGradient id="paint14_linear_34_3" x1="51.6872" y1="-1.264" x2="89.7042" y2="148.166" gradientUnits="userSpaceOnUse"><stop stop-color="#FCF315"></stop><stop offset="1" stop-color="#FCC000"></stop></linearGradient><linearGradient id="paint15_linear_34_3" x1="1.74941" y1="-19.276" x2="119.277" y2="130.94" gradientUnits="userSpaceOnUse"><stop stop-color="#FCF315"></stop><stop offset="1" stop-color="#FCC000"></stop></linearGradient><linearGradient id="paint16_linear_34_3" x1="119.921" y1="84.8066" x2="149.426" y2="135.901" gradientUnits="userSpaceOnUse"><stop stop-color="#FCF315"></stop><stop offset="1" stop-color="#FCC000"></stop></linearGradient></defs></svg> 